PathFileType	4	(X/Y/Z)	E:\Qualisys_Data\Carbon_Farble_Plate\Data\Amateur_Runner\S14\T3\S14T3V11_c3d.trc
DataRate	CameraRate	NumFrames	NumMarkers	Units	OrigDataRate	OrigDataStartFrame	OrigNumFrames
200.000000	200.000000	4	39	mm	200.000000	117	313
Frame#	Time	LSHO			RSHO			LICST			RICST			LASIS			LHEEL			RASIS			LTROC			RTROC			SACR			LTH1			LSK4			LTH2			LTH3			RHM5			LSK2			LTH4			RTH1			LTOE			RTH2			RTH3			RTH4			LLEP			RLEP			LSK1			LSK3			RSK1			LHM5			RSK2			LFT1			RSK3			RSK4			LLME			RLME			RTOE			RHEEL			RFT1			RFT2			LFT2			
		X1	Y1	Z1	X2	Y2	Z2	X3	Y3	Z3	X4	Y4	Z4	X5	Y5	Z5	X6	Y6	Z6	X7	Y7	Z7	X8	Y8	Z8	X9	Y9	Z9	X10	Y10	Z10	X11	Y11	Z11	X12	Y12	Z12	X13	Y13	Z13	X14	Y14	Z14	X15	Y15	Z15	X16	Y16	Z16	X17	Y17	Z17	X18	Y18	Z18	X19	Y19	Z19	X20	Y20	Z20	X21	Y21	Z21	X22	Y22	Z22	X23	Y23	Z23	X24	Y24	Z24	X25	Y25	Z25	X26	Y26	Z26	X27	Y27	Z27	X28	Y28	Z28	X29	Y29	Z29	X30	Y30	Z30	X31	Y31	Z31	X32	Y32	Z32	X33	Y33	Z33	X34	Y34	Z34	X35	Y35	Z35	X36	Y36	Z36	X37	Y37	Z37	X38	Y38	Z38	X39	Y39	Z39	

118	0.585	-483.3094482421875	1397.390380859375	-563.4317016601562	-482.6086120605469	1406.23974609375	-255.9574584960938	-566.7022705078125	965.1839599609376	-527.4729614257812	-526.2423095703125	963.7102661132812	-248.6625061035156	-521.7317504882812	915.9249877929688	-508.2014770507812	-878.7433471679688	131.7440490722656	-381.196044921875	-501.1817321777344	921.409912109375	-271.9940185546875	-661.4285278320312	851.114013671875	-533.7981567382812	-635.5921020507812	840.2565307617188	-211.7137603759766	-686.04736328125	970.8712158203124	-384.0095825195312	-579.6243896484375	620.9403686523438	-536.0057983398438	-746.3023681640625	305.6404724121094	-469.8524780273438	-652.438720703125	618.0501708984375	-510.4722900390625	-563.326904296875	525.7161254882812	-509.2471008300781	-744.0205688476562	152.7070617675781	-204.0569763183594	-694.53466796875	385.7609558105469	-494.9555358886719	-640.6790161132812	522.845947265625	-490.1997985839844	-436.1554260253906	664.428466796875	-210.8884429931641	-634.2508544921875	62.80777740478516	-427.1907653808594	-511.3435668945312	642.5233764648438	-198.8896636962891	-406.20166015625	569.7994384765625	-230.0544281005859	-486.1412658691406	544.5344848632812	-210.7480010986328	-610.8661499023438	448.6135864257812	-499.9647827148438	-453.2782592773438	491.106689453125	-217.2885894775391	-623.065673828125	343.2495727539062	-490.4217529296875	-679.2342529296875	260.5860900878906	-468.1087341308594	-518.6070556640625	399.2460021972656	-215.5899658203125	-708.1849365234375	67.56177520751953	-484.5722351074219	-569.018310546875	468.7012939453125	-216.0904693603516	-874.0321044921875	98.44320678710938	-358.0146179199219	-606.0955810546875	344.4169616699219	-228.1410217285156	-646.3429565429688	412.4037475585938	-227.266845703125	-812.3668823242188	144.2578430175781	-443.1210327148438	-771.9600830078125	289.5794677734375	-245.4557189941406	-692.5758666992188	97.888916015625	-267.6211853027344	-828.6218872070312	315.6334228515625	-299.5819396972656	-845.1065673828125	286.9766235351562	-325.9205017089844	-847.658447265625	306.0015869140625	-275.5918579101562	-885.2652587890625	105.1834869384766	-410.4900817871094
119	0.59	-464.3741455078125	1401.138916015625	-562.4349365234375	-468.7557373046875	1409.935668945312	-255.2480010986328	-549.18212890625	967.9994506835938	-527.8966064453125	-509.5240783691406	967.1431274414062	-249.7702178955078	-504.5752258300781	919.1044921875	-508.7113037109375	-875.6051635742188	138.3678894042969	-382.8701782226562	-484.9530029296875	925.0191040039062	-272.1283264160156	-644.782958984375	854.3595581054688	-534.5643310546875	-618.6605834960938	843.9681396484375	-212.0670928955078	-669.365234375	974.22998046875	-385.0536804199219	-568.8414916992188	623.4360961914062	-536.1477661132812	-741.2085571289062	310.3013000488281	-470.4267272949219	-641.3695678710938	622.6737060546875	-511.1273498535156	-555.0125732421875	527.7999877929688	-509.6829528808594	-707.8067626953125	147.5279998779297	-203.9805145263672	-688.7649536132812	390.2398986816406	-495.4347534179688	-632.1557006835938	526.8428955078125	-490.8317260742188	-417.3784790039062	670.5404052734375	-211.7660827636719	-633.41455078125	62.49517059326172	-428.0779724121094	-492.3535766601562	647.5982666015625	-199.6605072021484	-385.3731994628906	576.3190307617188	-231.272705078125	-465.1763000488281	549.77294921875	-212.1078796386719	-604.3058471679688	451.5946655273438	-500.0412902832031	-430.7812194824219	496.7289733886719	-219.16943359375	-617.674072265625	346.4736633300781	-491.1322631835938	-674.9225463867188	264.5960693359375	-469.2609558105469	-493.5597229003906	402.3931274414062	-216.4847717285156	-707.1633911132812	67.78203582763672	-485.0914916992188	-546.50732421875	470.1459655761719	-217.8932037353516	-871.6903686523438	104.4672317504883	-359.0367431640625	-578.4482421875	344.4936218261719	-228.8167724609375	-621.6906127929688	410.7251281738281	-228.4466094970703	-808.7662963867188	148.3387756347656	-443.864501953125	-741.572509765625	285.3242797851562	-243.6109924316406	-653.9990844726562	94.9958038330078	-267.5606994628906	-801.72998046875	306.6215209960938	-300.4159240722656	-815.7808837890625	276.7992858886719	-326.2073364257812	-820.2816162109375	295.6519165039062	-276.6393737792969	-882.4942016601562	110.9567260742188	-411.4237365722656
120	0.595	-445.3428344726562	1405.168334960938	-561.5200805664062	-454.9703369140625	1413.521606445312	-254.7785797119141	-531.8096923828125	971.4678955078124	-528.1793212890625	-493.1914978027344	970.9675903320312	-249.702392578125	-487.6092834472656	922.00732421875	-508.9508972167969	-871.7041015625	144.4249725341797	-384.2676391601562	-468.7713317871094	928.3381958007812	-272.5995788574219	-628.0452270507812	858.284912109375	-536.0516357421875	-602.0042724609375	848.1382446289062	-212.1142883300781	-652.2638549804688	977.7108154296876	-385.8303833007812	-557.3209228515625	626.3787841796875	-536.5010986328125	-736.2852172851562	315.8760070800781	-471.5542907714844	-630.6455688476562	627.3716430664062	-511.4224548339844	-545.8150634765625	530.5433349609375	-509.7914733886719	-671.8674926757812	142.6475677490234	-203.9338531494141	-682.4554443359375	394.4658508300781	-496.1990966796875	-623.5758666992188	531.1105346679688	-491.0523986816406	-398.77099609375	676.400390625	-212.1965942382812	-632.4261474609375	62.17809295654297	-428.4947204589844	-473.2413330078125	652.433837890625	-200.37158203125	-365.1816101074219	583.2219848632812	-232.7626190185547	-443.6272277832031	555.4210205078125	-213.9072418212891	-597.0834350585938	455.4060974121094	-500.7679138183594	-409.24609375	502.3467712402344	-220.6933288574219	-612.1043701171875	350.3133239746094	-492.0990600585938	-670.2794799804688	268.346923828125	-470.67529296875	-468.7106018066406	405.8933715820312	-217.5684509277344	-705.997314453125	68.17929077148438	-485.6786499023438	-524.2352905273438	471.3148193359375	-219.6602935791016	-868.4006958007812	111.4613647460938	-359.4811401367188	-551.6841430664062	344.1078186035156	-230.0579681396484	-597.1896362304688	408.9228515625	-229.614990234375	-805.0254516601562	153.5820007324219	-445.2349548339844	-711.9034423828125	278.2169494628906	-244.2967224121094	-615.1307983398438	92.65366363525392	-267.6001586914062	-771.5636596679688	295.501953125	-301.1861267089844	-786.5601196289062	266.4538879394531	-327.3872375488281	-791.2818603515625	285.3344116210938	-277.0447082519531	-878.9307861328125	116.9487152099609	-412.3519897460938
121	0.6	-426.6344604492188	1409.426025390625	-560.4847412109375	-440.7951965332031	1417.234741210938	-254.2815704345703	-514.1585693359375	974.7860717773438	-528.1275024414062	-476.8627624511719	974.8157958984376	-249.8879241943359	-470.3310546875	925.158203125	-508.7767639160156	-867.2014770507812	150.6560668945312	-385.9521484375	-452.1033325195312	931.8778076171876	-272.822265625	-611.310791015625	862.2424926757812	-536.8290405273438	-584.5735473632812	852.2169799804688	-211.5350646972656	-635.1777954101562	981.1552734375	-386.765869140625	-545.6387939453125	629.2924194335938	-536.7928466796875	-730.4462280273438	320.7626037597656	-472.8011474609375	-619.168212890625	632.2649536132812	-512.3003540039062	-536.9056396484375	533.232177734375	-510.5499572753906	-635.3345336914062	137.7760314941406	-203.9897613525391	-676.3709106445312	399.0802917480469	-497.0410461425781	-614.6361694335938	535.9384765625	-491.8082580566406	-380.2084655761719	682.1358642578125	-213.0546569824219	-631.7789916992188	61.95001983642578	-429.0127563476562	-454.4876708984375	656.895751953125	-201.8625640869141	-345.1435241699219	589.6732788085938	-233.5585174560547	-423.0929565429688	560.39697265625	-215.7799072265625	-590.14599609375	459.0793151855469	-501.6443481445312	-388.2713317871094	507.8822021484375	-222.3044586181641	-606.2462768554688	354.1669616699219	-493.0520935058594	-665.210205078125	273.0475158691406	-472.0730285644531	-443.8503723144531	408.9693298339844	-218.9614410400391	-704.6194458007812	68.1379165649414	-486.3656005859375	-502.1858520507812	472.0874938964844	-221.3107147216797	-864.8777465820312	117.9808807373047	-360.1792297363281	-524.61279296875	343.7096557617188	-232.0956573486328	-572.5836791992188	406.7160034179688	-230.9134368896484	-800.63623046875	158.4778442382812	-446.6479187011719	-681.9595336914062	270.9267883300781	-244.7616271972656	-576.4197998046875	90.235107421875	-267.388916015625	-743.1054077148438	285.5915222167969	-302.1084594726562	-754.439453125	255.0636291503906	-327.3763427734375	-761.604736328125	274.2936706542969	-277.7274475097656	-875.2904052734375	123.3156280517578	-413.3683471679688
